<?xml version="1.0" standalone="no"?>
<!DOCTYPE svg PUBLIC "-//W3C//DTD SVG 20010904//EN"
 "http://www.w3.org/TR/2001/REC-SVG-20010904/DTD/svg10.dtd">
<svg version="1.0" xmlns="http://www.w3.org/2000/svg"
 width="125.000000pt" height="125.000000pt" viewBox="0 0 125.000000 125.000000"
 preserveAspectRatio="xMidYMid meet">
<metadata>
Created by potrace 1.11, written by Peter Selinger 2001-2013
</metadata>
<g transform="translate(0.000000,125.000000) scale(0.100000,-0.100000)"
fill="#000000" stroke="none">
<path d="M550 1240 c0 -5 -5 -10 -12 -10 -6 0 -34 -22 -62 -49 -201 -194 -257
-252 -251 -261 3 -5 0 -7 -8 -5 -16 7 -52 -30 -43 -44 4 -5 1 -13 -5 -17 -8
-5 -9 -3 -4 5 4 7 -4 5 -19 -4 -14 -10 -25 -25 -24 -34 2 -11 -3 -15 -16 -13
-13 3 -17 -1 -13 -12 3 -8 1 -18 -5 -22 -7 -5 -8 -2 -4 7 4 8 -9 -4 -28 -26
-20 -22 -36 -46 -36 -52 0 -7 -4 -13 -10 -13 -5 0 -9 -29 -9 -66 1 -42 4 -62
10 -53 7 11 9 9 9 -7 0 -24 57 -100 72 -96 5 1 7 -1 4 -6 -7 -12 68 -84 79
-75 4 5 5 3 1 -4 -4 -7 8 -23 30 -40 72 -56 281 -272 276 -286 -1 -5 2 -6 8
-2 5 3 10 1 10 -4 0 -6 5 -11 10 -11 6 0 19 -9 30 -20 21 -21 46 -28 35 -10
-3 5 -1 10 4 10 6 0 11 -4 11 -10 0 -5 12 -10 26 -10 14 0 23 4 19 10 -3 6 -2
10 4 10 5 0 11 -5 13 -12 8 -22 65 30 310 276 225 227 276 285 261 300 -4 3
-1 6 5 6 22 0 12 59 -18 110 -40 68 -91 123 -103 111 -6 -6 6 -28 36 -61 51
-57 62 -91 52 -158 -8 -51 11 -30 -320 -367 -88 -90 -173 -168 -188 -174 -41
-16 -113 -13 -147 4 -28 14 -455 439 -485 482 -21 30 -28 94 -16 138 9 32 57
86 245 277 151 154 245 243 269 253 83 35 132 13 259 -115 55 -55 103 -98 109
-95 5 4 6 -2 2 -11 -5 -13 -3 -16 10 -11 10 4 14 2 11 -6 -6 -17 41 -61 55
-53 7 5 8 1 4 -10 -5 -14 -3 -16 11 -11 9 4 15 3 12 -2 -9 -13 35 -63 50 -57
8 3 11 0 7 -10 -6 -15 12 -20 22 -5 5 9 -97 116 -266 276 -46 44 -93 92 -104
106 -11 14 -30 31 -42 37 -27 15 -143 16 -143 2z m-210 -213 c0 -2 -10 -12
-22 -23 l-23 -19 19 23 c18 21 26 27 26 19z m-80 -81 c0 -2 -8 -10 -17 -17
-16 -13 -17 -12 -4 4 13 16 21 21 21 13z"/>
<path d="M545 1150 c-39 -19 -426 -408 -452 -454 -16 -27 -16 -103 0 -138 13
-29 396 -422 438 -450 40 -26 89 -31 135 -15 31 12 89 64 249 225 115 116 214
225 222 243 15 36 18 129 4 129 -5 0 -13 9 -16 20 -9 28 -403 424 -442 444
-43 22 -89 20 -138 -4z m-35 -251 c0 -6 28 -70 63 -142 35 -73 72 -153 83
-179 10 -27 22 -48 27 -48 4 0 7 -9 7 -19 0 -11 5 -23 10 -26 23 -14 9 -33
-22 -30 -18 2 -58 3 -88 4 -52 1 -56 3 -69 34 -8 17 -34 73 -58 122 -23 50
-43 98 -43 107 0 9 16 49 35 89 19 41 35 79 35 86 0 7 5 13 10 13 6 0 10 -5
10 -11z m341 -189 c5 -8 12 -22 16 -30 3 -8 17 -40 31 -70 38 -85 62 -141 62
-146 0 -2 -38 -4 -85 -4 l-86 0 -36 78 c-71 154 -82 183 -76 200 3 9 17 42 31
72 13 30 29 66 34 80 9 23 13 18 55 -70 24 -52 49 -102 54 -110z m-431 -157
c24 -43 48 -81 54 -85 5 -4 -37 -8 -95 -10 -97 -3 -135 6 -107 24 7 3 19 20
27 36 45 84 62 112 69 112 5 0 28 -35 52 -77z m230 -443 c-8 -5 -19 -10 -25
-10 -5 0 -3 5 5 10 8 5 20 10 25 10 6 0 3 -5 -5 -10z"/>
</g>
</svg>
